<svg width="27" height="34" viewBox="0 0 27 34" fill="none" xmlns="http://www.w3.org/2000/svg">
<path fill-rule="evenodd" clip-rule="evenodd" d="M13.5 33.4914L14.4866 32.6299C22.783 25.3856 27 19.0601 27 13.5C27 5.626 20.8544 0 13.5 0C6.14558 0 0 5.626 0 13.5C0 19.0601 4.21696 25.3856 12.5134 32.6299L13.5 33.4914ZM13.4996 29.4947C6.45954 23.1499 2.99962 17.7735 2.99962 13.4996C2.99962 7.34452 7.74579 2.99962 13.4996 2.99962C19.2534 2.99962 23.9996 7.34452 23.9996 13.4996C23.9996 17.7735 20.5397 23.1499 13.4996 29.4947ZM13.5004 6.0006C17.6426 6.0006 21.0004 9.35846 21.0004 13.5006C21.0004 17.6427 17.6426 21.0006 13.5004 21.0006C9.35828 21.0006 6.00042 17.6427 6.00042 13.5006C6.00042 9.35846 9.35828 6.0006 13.5004 6.0006ZM9.00016 13.5002C9.00016 11.0149 11.0149 9.00019 13.5002 9.00019C15.9854 9.00019 18.0002 11.0149 18.0002 13.5002C18.0002 15.9855 15.9854 18.0002 13.5002 18.0002C11.0149 18.0002 9.00016 15.9855 9.00016 13.5002Z" fill="#02265A"/>
</svg>
