<svg width="30" height="30" viewBox="0 0 30 30" fill="none" xmlns="http://www.w3.org/2000/svg">
<path fill-rule="evenodd" clip-rule="evenodd" d="M13.2921 9.50831C14.0692 8.461 14.3479 7.35723 13.469 6.38293C11.4966 3.62296 10.17 1.9162 9.33799 1.09427C7.75615 -0.468329 5.154 -0.256963 3.78401 1.09294C3.04818 1.81798 2.79907 2.06696 2.04352 2.83438C-2.16495 7.04511 0.401594 15.9465 7.22441 22.776C14.0457 29.604 22.9462 32.1719 27.1635 27.9522C27.8607 27.2801 28.451 26.6895 28.9165 26.1974C30.2591 24.7784 30.4629 22.291 28.9077 20.6751C28.1104 19.8466 26.4828 18.5842 23.6067 16.5269C22.7259 15.7392 21.6814 15.9099 20.7239 16.5381C20.2633 16.8403 19.9281 17.146 19.2951 17.7796L18.1458 18.9296C17.9944 19.081 15.9388 18.0516 13.9434 16.0542C11.9469 14.0558 10.9182 12.0001 11.0688 11.8494C11.3796 11.5387 11.7629 11.1551 12.219 10.6986C12.4198 10.4976 12.5158 10.4003 12.6389 10.2709C12.8955 10.0013 13.1078 9.75662 13.2921 9.50831ZM20.2655 21.0497L21.4151 19.8995C21.7634 19.5508 21.9892 19.3364 22.1729 19.1886C24.6923 20.9979 26.1515 22.1356 26.7475 22.7549C27.1053 23.1267 27.0497 23.8051 26.7387 24.1339C26.3082 24.5889 25.7489 25.1485 25.0625 25.8105C22.3355 28.5387 15.1508 26.4659 9.3446 20.654C3.53663 14.8403 1.46474 7.65453 4.17121 4.94657C4.9237 4.18231 5.16211 3.94402 5.88744 3.22933C6.1594 2.96135 6.90019 2.90118 7.23102 3.22799C7.87162 3.8608 9.05992 5.38233 10.808 7.81734C10.7175 7.92969 10.6045 8.05665 10.4669 8.20121C10.366 8.30731 10.2818 8.39256 10.098 8.57661C9.64227 9.03278 9.25925 9.416 8.94895 9.72628C6.99423 11.6808 8.65894 15.0074 11.8224 18.174C14.9836 21.3383 18.3114 23.0049 20.2655 21.0497ZM17.4888 0.104632C23.9738 0.890689 29.1159 6.03276 29.9019 12.5177L26.9388 13.0116C26.3667 7.78804 22.2185 3.63992 16.995 3.06779L17.4888 0.104632ZM16.4999 6.03376C20.4622 6.38815 23.6179 9.54386 23.9723 13.5061L20.9996 14.0016C20.8735 11.3003 18.7058 9.13257 16.0045 9.00643L16.4999 6.03376Z" fill="#02265A"/>
</svg>
